<svg width="300" height="127.92318424402264" viewBox="0 0 300 127.92318424402264" class="css-1j8o68f">
  <defs id="SvgjsDefs9769">
    <linearGradient id="SvgjsLinearGradient9776">
      <stop id="SvgjsStop9777" stop-color="#00ddff" offset="0"></stop>
      <stop id="SvgjsStop9778" stop-color="#ff00d4" offset="1"></stop>
    </linearGradient>
  </defs>
  <g id="SvgjsG9770" featurekey="4K7G0D-0" transform="matrix(1.0562450885772705,0,0,1.0562450885772705,-12.812252924811178,3.375231040012217)" fill="url(#SvgjsLinearGradient9776)">
    <metadata xmlns="http://www.w3.org/2000/svg">
      <sfw xmlns="http://ns.adobe.com/SaveForWeb/1.0/">
        <slices>
          <slicesourcebounds y="-8142" x="-8141" width="16383" height="16383" bottomleftorigin="true"></slicesourcebounds>
        </slices>
      </sfw>
    </metadata>
    <g xmlns="http://www.w3.org/2000/svg">
      <path d="M50,6.272L12.13,28.137v43.728L50,93.728l37.87-21.863V28.137L50,6.272z M78.438,32.691L51,16.85V9.159L84.898,28.73   L78.438,32.691z M50,59.352l-7.21-4.162v-8.326L50,42.701l7.209,4.162v8.326L50,59.352z M49,40.968l-6.67,3.851l-7.902-4.675   L49,31.731V40.968z M40.79,46.232v8.625l-8,4.451v-17.81L40.79,46.232z M41.498,56.753L49,61.083v9.238l-15.65-9.035L41.498,56.753   z M51,61.083l7.502-4.331l8.148,4.534L51,70.321V61.083z M59.209,54.855v-8.73l0.314,0.513l7.687-4.714v17.383L59.209,54.855z    M58.479,44.934l0.335,0.547L51,40.969v-9.237l14.94,8.625L58.479,44.934z M49,29.422l-16.547,9.553l-8.779-5.194L49,19.159V29.422   z M30.79,40.315v20.107l-8,4.451V35.582L30.79,40.315z M31.313,62.42L49,72.63v8.212L24.071,66.449L31.313,62.42z M51,72.63   l17.687-10.211l7.243,4.03L51,80.842V72.63z M69.21,60.421V40.698l8-4.907v29.081L69.21,60.421z M67.879,39.168L51,29.423V19.159   l25.5,14.722L67.879,39.168z M49,16.849L21.699,32.612l-6.579-3.893L49,9.159V16.849z M20.79,34.398v31.588l-6.66,3.705V30.458   L20.79,34.398z M22.034,67.583L49,83.15v7.691L15.251,71.357L22.034,67.583z M51,83.15l26.966-15.568l6.783,3.775L51,90.842V83.15z    M79.21,65.985V34.564l6.66-4.085v39.212L79.21,65.985z"></path>
    </g>
  </g>
  <g id="SvgjsG9771" featurekey="wPuqcM-0" transform="matrix(7.974481582641602,0,0,7.974481582641602,90.43062730399997,-47.84689009770447)" fill="#fcfcfc">
    <path d="M10.36 6 l2.92 0 l0 14 l-2.22 0 l-6.94 -8.68 l0 8.68 l-2.92 0 l0 -14 l2.26 0 l6.9 8.7 l0 -8.7 z M23.4 12.24 c1.48 0.4 2.88 1.72 2.88 3.66 c0 2.54 -1.6 4.1 -5.08 4.1 l-5.52 0 l0 -14 l5.22 0 c2.9 0 4.36 1.64 4.36 3.52 c0 1.48 -0.96 2.32 -1.86 2.72 z M20.62 8.56 l-2.02 0 l0 2.82 l2.02 0 c1.24 0 1.74 -0.58 1.74 -1.42 c0 -0.9 -0.58 -1.4 -1.74 -1.4 z M21.04 17.44 c1.6 0 2.32 -0.66 2.32 -1.9 c0 -1.06 -0.72 -1.8 -2.44 -1.8 l-2.32 0 l0 3.7 l2.44 0 z"></path>
  </g>
  <g id="SvgjsG9772" featurekey="Li3fkV-0" transform="matrix(0.41133221983909607,0,0,0.41133221983909607,99.75320050939519,119.61427302916908)" fill="#fcfcfc">
    <path d="M20.54 6 l-4.6 14 l-2.1 0 l-3.28 -8.86 l-3.26 8.86 l-2.1 0 l-4.6 -14 l3.08 0 l2.68 8.3 l3.06 -8.3 l2.3 0 l3.06 8.3 l2.68 -8.3 l3.08 0 z M39.18 17.32 l5.92 0 l0 2.68 l-6.32 0 l-2.52 0 l0 -14 l2.92 0 l5.74 0 l0 2.68 l-5.74 0 l0 2.96 l4.34 0 l0 2.64 l-4.34 0 l0 3.04 z M68.84 12.24 c1.48 0.4 2.88 1.72 2.88 3.66 c0 2.54 -1.6 4.1 -5.08 4.1 l-5.52 0 l0 -14 l5.22 0 c2.9 0 4.36 1.64 4.36 3.52 c0 1.48 -0.96 2.32 -1.86 2.72 z M66.06 8.56 l-2.02 0 l0 2.82 l2.02 0 c1.24 0 1.74 -0.58 1.74 -1.42 c0 -0.9 -0.58 -1.4 -1.74 -1.4 z M66.48 17.44 c1.6 0 2.32 -0.66 2.32 -1.9 c0 -1.06 -0.72 -1.8 -2.44 -1.8 l-2.32 0 l0 3.7 l2.44 0 z M112.46000000000001 6 c3.98 0 7.1 3.12 7.1 6.92 c0 3.96 -3.12 7.08 -7.1 7.08 l-5 0 l0 -14 l5 0 z M112.44 17.240000000000002 c2.68 0 4.12 -1.94 4.12 -4.32 c0 -2.22 -1.44 -4.16 -4.12 -4.16 l-2.06 0 l0 8.48 l2.06 0 z M138.4 17.32 l5.92 0 l0 2.68 l-6.32 0 l-2.52 0 l0 -14 l2.92 0 l5.74 0 l0 2.68 l-5.74 0 l0 2.96 l4.34 0 l0 2.64 l-4.34 0 l0 3.04 z M171.51999999999998 6 l3.12 0 l-6.24 14 l-2.64 0 l-6.22 -14 l3.1 0 l4.44 10.42 z M193.07999999999998 17.32 l5.92 0 l0 2.68 l-6.32 0 l-2.52 0 l0 -14 l2.92 0 l5.74 0 l0 2.68 l-5.74 0 l0 2.96 l4.34 0 l0 2.64 l-4.34 0 l0 3.04 z M217.94 17.32 l5.5 0 l0 2.68 l-8.42 0 l0 -14 l2.92 0 l0 11.32 z M246.32 5.800000000000001 c3.9 0 7.26 2.94 7.26 7.2 s-3.36 7.2 -7.26 7.2 s-7.26 -2.94 -7.26 -7.2 s3.36 -7.2 7.26 -7.2 z M246.32 17.46 c2.36 0 4.22 -1.86 4.22 -4.46 s-1.86 -4.46 -4.22 -4.46 s-4.22 1.86 -4.22 4.46 s1.86 4.46 4.22 4.46 z M274.5 6 c3.14 0 5.18 1.9 5.18 4.76 c0 2.82 -2.04 4.58 -5.18 4.58 l-1.98 0 l0 4.66 l-2.92 0 l0 -14 l4.9 0 z M274.32 12.82 c1.44 0 2.44 -0.56 2.44 -2.06 c0 -1.48 -1 -2.08 -2.44 -2.08 l-1.8 0 l0 4.14 l1.8 0 z M310.49999999999994 6 l0 14 l-3 0 l0 -7.44 l-3.26 7.44 l-2.52 0 l-3.22 -7.4 l0 7.4 l-3 0 l0 -14 l2.88 0 l4.62 10.1 l4.62 -10.1 l2.88 0 z M329.73999999999995 17.32 l5.92 0 l0 2.68 l-6.32 0 l-2.52 0 l0 -14 l2.92 0 l5.74 0 l0 2.68 l-5.74 0 l0 2.96 l4.34 0 l0 2.64 l-4.34 0 l0 3.04 z M360.84 6 l2.92 0 l0 14 l-2.22 0 l-6.94 -8.68 l0 8.68 l-2.92 0 l0 -14 l2.26 0 l6.9 8.7 l0 -8.7 z M389.5799999999999 6 l0 2.68 l-3.48 0 l0 11.32 l-2.92 0 l0 -11.32 l-3.5 0 l0 -2.68 l9.9 0 z"></path>
  </g>
</svg>