<svg width="72px" height="64px" viewBox="0 0 72 64" version="1.1" xmlns="http://www.w3.org/2000/svg" xmlns:xlink="http://www.w3.org/1999/xlink">
    <g id="KPI-Dashboard" stroke="none" stroke-width="1" fill="none" fill-rule="evenodd">
        <g id="KPI-Dashboard---Core" transform="translate(-40.000000, -28.000000)" fill="#FFFFFF" fill-rule="nonzero">
            <g id="jh-logo-only-color-rgb" transform="translate(40.000000, 28.000000)">
                <path d="M64.8,64 L7.2,64 C3.24444444,64 0,60.7555556 0,56.8 L0,7.2 C0,3.24444444 3.24444444,0 7.2,0 L66.0444444,0 C69.3333333,0 72,2.66666667 72,5.91111111 L72,7.64444444 C72,7.82222222 71.8666667,7.95555556 71.6888889,7.95555556 L9.28888889,8 C8.57777778,8 8,8.57777778 8,9.28888889 L8,54.7111111 C8,55.4222222 8.57777778,56 9.28888889,56 L62.7111111,56 C63.4222222,56 64,55.4222222 64,54.7111111 L64,52.3111111 C64,52.1333333 64.1333333,52 64.3111111,52 L71.6444444,52 C71.8222222,52 71.9555556,52.1333333 71.9555556,52.3111111 L71.9555556,56.8 C72,60.7555556 68.7555556,64 64.8,64 Z" id="Path"></path>
                <path d="M71.6888889,16 L64.3111111,16 C64.1333333,16 64,16.1333333 64,16.3111111 L64,28.8 C62.0888889,28.3111111 60.0444444,28.0444444 58,28.0444444 C55.9111111,28.0444444 53.9111111,28.3111111 52,28.8 L52,16.3111111 C52,16.1333333 51.8666667,16 51.6888889,16 L44.3111111,16 C44.1333333,16 44,16.1333333 44,16.3111111 L44,43.6444444 C44,43.8222222 44.1333333,43.9555556 44.3111111,43.9555556 L51.6444444,43.9555556 C51.8222222,43.9555556 51.9555556,43.8222222 51.9555556,43.6444444 L51.9555556,37.2 C53.8222222,36.4444444 55.8222222,36.0444444 57.9555556,36.0444444 C60.0888889,36.0444444 62.0888889,36.4444444 63.9555556,37.2444444 L63.9555556,43.6888889 C63.9555556,43.8666667 64.0888889,44 64.2666667,44 L71.6444444,44 C71.8222222,44 71.9555556,43.8666667 71.9555556,43.6888889 L71.9555556,16.3111111 C72,16.1333333 71.8666667,16 71.6888889,16 Z" id="Path"></path>
                <path d="M40,43.1111111 L40,43.1111111 L40,16.3111111 C40,16.1333333 39.8666667,16 39.6888889,16 L32.3111111,16 C32.1333333,16 32,16.1333333 32,16.3111111 L32,39.4666667 C30.6222222,40.3111111 28.9777778,40.8444444 27.2,40.8444444 C25.1111111,40.8444444 23.1555556,40.1333333 21.6444444,38.9333333 C21.5111111,38.8444444 21.3333333,38.8444444 21.2,38.9777778 L16.4444444,44.6222222 C16.3111111,44.7555556 16.3555556,44.9777778 16.4888889,45.0666667 C19.4222222,47.4666667 23.1555556,48.8888889 27.2444444,48.8888889 C32.3111111,48.8888889 36.8444444,46.6666667 40,43.1111111 L40,43.1111111 Z" id="Path"></path>
            </g>
        </g>
    </g>
</svg>