<svg width="369.58823529411757" height="132.92710736463323" viewBox="0 0 369.58823529411757 132.92710736463323">
  <!-- <defs id="SvgjsDefs7145"></defs> -->
  <g featurekey="mugSzh-0" transform="matrix(0.31843137741088867,0,0,0.31843137741088867,-21.812549019607843,-14.486832538679536)" fill="#f6f6f6">
    <g xmlns="http://www.w3.org/2000/svg">
      <polygon points="121.6,256.1 170.1,207.7 143.5,181.1 68.5,256.1 122.5,310.1 148.9,283.4  "></polygon>
      <polygon points="389.5,202.1 363.1,228.7 390.4,256.1 342.1,304.6 368.5,331.1 443.5,256.1  "></polygon>
      <rect x="96.9" y="237.3" transform="matrix(0.7071 -0.7071 0.7071 0.7071 -106.0356 256.0074)" width="318.2"
        height="37.5"></rect>
    </g>
  </g>
  <g featurekey="PPkF4s-0" transform="matrix(9.042648315429688,0,0,9.042648315429688,139,-49.91487438959805)" fill="#f6f6f6">
    <path
      d="M1.9 8.2 l-1.9 0 l1.3 -2.5 l3.28 0 l4.74 7.84 l0.12 0.34 l0 -8.18 l3.12 0 l0 14.3 l-2.66 0 l-4.8 -7.9 l-0.1 -0.3 l0 8.2 l-3.1 0 l0 -11.8 z M15.500000000000002 5.76 c0.53334 -0.09334 1.0934 -0.15672 1.6801 -0.19006 s1.2733 -0.05 2.06 -0.05 c0.74666 0 1.4433 0.06 2.09 0.18 s1.21 0.32666 1.69 0.62 s0.85666 0.68668 1.13 1.18 s0.41 1.1133 0.41 1.86 c0 0.61334 -0.12334 1.18 -0.37 1.7 s-0.55666 0.93334 -0.93 1.24 c0.28 0.12 0.55334 0.27666 0.82 0.47 s0.50332 0.43668 0.70998 0.73002 s0.37666 0.63668 0.51 1.03 s0.2 0.83668 0.2 1.33 c0 0.88 -0.16 1.6033 -0.48 2.17 s-0.75666 1.01 -1.31 1.33 s-1.19 0.54334 -1.91 0.67 s-1.48 0.19 -2.28 0.19 c-0.56 0 -1.17 -0.01666 -1.83 -0.05 s-1.39 -0.09668 -2.19 -0.19002 l0 -14.22 z M18.78 17.44 c0.18666 0.02666 0.37666 0.04334 0.57 0.05 s0.36334 0.01 0.51 0.01 c0.24 0 0.5 -0.02334 0.78 -0.07 s0.53334 -0.13666 0.76 -0.27 s0.41666 -0.31668 0.57 -0.55002 s0.23 -0.54334 0.23 -0.93 c0 -0.36 -0.06 -0.65334 -0.18 -0.88 s-0.28666 -0.40332 -0.5 -0.52998 s-0.47 -0.21666 -0.77 -0.27 s-0.63666 -0.08 -1.01 -0.08 l-0.96 0 l0 3.52 z M19.42 11.36 c0.6 0.02666 1.0934 -0.08 1.48 -0.32 s0.58 -0.7 0.58 -1.38 c0 -0.33334 -0.06 -0.60334 -0.18 -0.81 s-0.27666 -0.37 -0.47 -0.49 s-0.40668 -0.2 -0.64002 -0.24 s-0.46334 -0.06 -0.69 -0.06 l-0.36 0 l-0.36 0.04 l0 3.24 z">
    </path>
  </g>
</svg>